Coordinates
version=1
nRows=24
nColumns=24
inDegrees=yes

Units are S.I. units (second, meters, Newtons, ...)
Angles are in degrees.

endheader
time	pelvis_tilt	pelvis_list	pelvis_rotation	pelvis_tx	pelvis_ty	pelvis_tz	hip_flexion_r	hip_adduction_r	hip_rotation_r	knee_angle_r	ankle_angle_r	subtalar_angle_r	mtp_angle_r	hip_flexion_l	hip_adduction_l	hip_rotation_l	knee_angle_l	ankle_angle_l	subtalar_angle_l	mtp_angle_l	lumbar_extension	lumbar_bending	lumbar_rotation
      6.27500000	     13.48165468	     -2.53266889	     10.99481120	      2.55164612	      0.75590387	     -0.28115361	    -12.48133311	      7.44899305	     -4.16945613	    -11.20355273	     27.51802682	      8.91521158	      0.00000000	     12.88596653	     -0.25861867	      5.30934972	    -66.87306774	     23.29129474	      2.69724777	      0.00000000	    -29.49356580	      8.96228957	      1.92031173
      6.28000000	     13.64914031	     -2.45651064	     10.67762569	      2.55886246	      0.75591794	     -0.28102194	    -13.58371556	      7.39939957	     -4.25942205	    -10.60486459	     27.82410253	      9.61871939	      0.00000000	     13.39943227	     -0.10861425	      4.96852289	    -65.71728608	     23.59110021	      2.31509537	      0.00000000	    -29.80181067	      8.78700387	      2.29185629
      6.28500000	     13.76175048	     -2.47459711	     10.33269947	      2.56602381	      0.75577678	     -0.28084921	    -14.57777915	      7.42786109	     -4.28754432	    -10.05752633	     28.04782184	     10.21581585	      0.00000000	     13.97260840	     -0.06288330	      4.63723641	    -64.49751165	     23.83858887	      1.82934064	      0.00000000	    -30.05707897	      8.67937443	      2.74930760
      6.29000000	     13.85616705	     -2.53753614	      9.98742283	      2.57315784	      0.75553898	     -0.28066979	    -15.51741401	      7.49310716	     -4.32551897	     -9.56183040	     28.20041411	     10.72291667	      0.00000000	     14.54482504	     -0.08734684	      4.29316205	    -63.18935542	     24.03781530	      1.24911532	      0.00000000	    -30.29725307	      8.61886721	      3.20580301
      6.29500000	     14.04411748	     -2.47769148	      9.66611395	      2.58031690	      0.75536478	     -0.28056142	    -16.58948840	      7.43339482	     -4.48708282	     -9.05743984	     28.47608400	     11.43127137	      0.00000000	     14.91746443	      0.02020726	      4.01261660	    -61.71533522	     24.18688224	      0.65150274	      0.00000000	    -30.65570610	      8.45708814	      3.55348195
      6.30000000	     14.11391848	     -2.58986393	      9.29874929	      2.58738424	      0.75496757	     -0.28038024	    -17.45541272	      7.52438565	     -4.45536337	     -8.63836109	     28.62900346	     11.86493740	      0.00000000	     15.45122931	     -0.06883051	      3.70047111	    -60.21935196	     24.23726761	     -0.04238437	      0.00000000	    -30.89153829	      8.43478883	      4.02647403
      6.30500000	     14.28149265	     -2.56342270	      8.93750983	      2.59448905	      0.75465664	     -0.28025183	    -18.46293324	      7.47215641	     -4.50497963	     -8.20686177	     28.90708644	     12.44241081	      0.00000000	     15.76546199	     -0.01595966	      3.42638857	    -58.54316882	     24.24623835	     -0.72816735	      0.00000000	    -31.25104260	      8.28650356	      4.38826771
      6.31000000	     14.40298868	     -2.61777289	      8.58204732	      2.60155882	      0.75422846	     -0.28012749	    -19.37716011	      7.49037695	     -4.55951768	     -7.83249972	     29.09043276	     12.93949024	      0.00000000	     16.11536081	     -0.05432321	      3.17183001	    -56.79788839	     24.21153316	     -1.43240959	      0.00000000	    -31.56210952	      8.21616245	      4.78663529
      6.31500000	     14.50573886	     -2.69720562	      8.22395369	      2.60860354	      0.75373237	     -0.28000348	    -20.24946864	      7.52563435	     -4.56672608	     -7.49559743	     29.26256727	     13.37385395	      0.00000000	     16.44437765	     -0.12183746	      2.94423651	    -54.95809992	     24.11393823	     -2.10925862	      0.00000000	    -31.86067800	      8.16453035	      5.19151664
      6.32000000	     14.62015032	     -2.75933174	      7.87607961	      2.61566502	      0.75321246	     -0.27991047	    -21.13014749	      7.53644475	     -4.62979369	     -7.17759715	     29.41162941	     13.80543477	      0.00000000	     16.69960075	     -0.18183154	      2.72105599	    -53.00741599	     23.99098383	     -2.73327247	      0.00000000	    -32.17404392	      8.10274799	      5.56439754
      6.32500000	     14.67041131	     -2.90437732	      7.51491999	      2.62266522	      0.75257619	     -0.27981390	    -21.89615595	      7.61260178	     -4.58283124	     -6.92506496	     29.53397977	     14.13948681	      0.00000000	     17.00566279	     -0.32222825	      2.53895223	    -51.00035387	     23.77810137	     -3.29140792	      0.00000000	    -32.42888253	      8.10869943	      6.01595478
      6.33000000	     14.74286095	     -2.99483428	      7.14792432	      2.62971583	      0.75194956	     -0.27971367	    -22.69623553	      7.62549285	     -4.55335208	     -6.68042789	     29.67927266	     14.48575254	      0.00000000	     17.19891944	     -0.41497246	      2.36157844	    -48.86292626	     23.55567508	     -3.75717436	      0.00000000	    -32.70914558	      8.05288005	      6.39954206
      6.33500000	     14.78977073	     -3.10534819	      6.80489903	      2.63677074	      0.75125659	     -0.27967017	    -23.45171458	      7.65215999	     -4.53326787	     -6.47021156	     29.80358236	     14.81580482	      0.00000000	     17.37513204	     -0.52540081	      2.21099426	    -46.65359873	     23.31003802	     -4.08158270	      0.00000000	    -32.96022145	      8.03286188	      6.78352530
      6.34000000	     14.82901696	     -3.21315604	      6.46050903	      2.64385060	      0.75052645	     -0.27962250	    -24.18807859	      7.66597755	     -4.51401489	     -6.29052644	     29.94016930	     15.14830885	      0.00000000	     17.49792768	     -0.63617620	      2.07981994	    -44.36317020	     23.04826274	     -4.26874485	      0.00000000	    -33.20161777	      7.99939135	      7.15027438
      6.34500000	     14.83657231	     -3.33813632	      6.12061322	      2.65095762	      0.74973724	     -0.27959824	    -24.87312355	      7.68456550	     -4.48849653	     -6.15017022	     30.05940543	     15.47087511	      0.00000000	     17.60329135	     -0.76380398	      1.96246151	    -42.01455036	     22.77353761	     -4.29147318	      0.00000000	    -33.40613594	      7.98252855	      7.52681312
      6.35000000	     14.81539678	     -3.47402482	      5.77852665	      2.65809869	      0.74889526	     -0.27958436	    -25.51022976	      7.69942183	     -4.45309972	     -6.05066589	     30.16970370	     15.78882750	      0.00000000	     17.68538031	     -0.90435325	      1.85300443	    -39.61537872	     22.49276986	     -4.14187212	      0.00000000	    -33.57495683	      7.97114102	      7.90891760
      6.35500000	     14.76799968	     -3.61783648	      5.43195004	      2.66528444	      0.74800555	     -0.27958799	    -26.10196145	      7.70515219	     -4.40755593	     -5.99562224	     30.27576202	     16.11242270	      0.00000000	     17.74172029	     -1.05361355	      1.74842010	    -37.18110015	     22.21318469	     -3.81516918	      0.00000000	    -33.70960294	      7.96323089	      8.29649492
      6.36000000	     14.71234999	     -3.76233832	      5.08509067	      2.67252219	      0.74708608	     -0.27960991	    -26.66867892	      7.69693308	     -4.37934117	     -5.98441931	     30.38064687	     16.46345093	      0.00000000	     17.75347293	     -1.20493488	      1.64935968	    -34.72549806	     21.94491320	     -3.30906960	      0.00000000	    -33.82893634	      7.95321738	      8.69765729
      6.36500000	     14.62830948	     -3.91288262	      4.72854717	      2.67981662	      0.74612434	     -0.27964306	    -27.18209616	      7.67343753	     -4.34102944	     -6.03061476	     30.48412204	     16.83881802	      0.00000000	     17.74801102	     -1.36396357	      1.54542407	    -32.27113725	     21.68411820	     -2.63456787	      0.00000000	    -33.91025388	      7.94138797	      9.10841369
      6.37000000	     14.51551984	     -4.07014725	      4.35859867	      2.68717066	      0.74512047	     -0.27969226	    -27.64101905	      7.63371452	     -4.29110612	     -6.13480111	     30.59039799	     17.23039773	      0.00000000	     17.73059163	     -1.52833193	      1.44612295	    -29.84100825	     21.43527194	     -1.81542495	      0.00000000	    -33.95208439	      7.93193356	      9.52291632
      6.37500000	     14.39188423	     -4.22224610	      3.97541263	      2.69460134	      0.74409869	     -0.27975028	    -28.06367556	      7.56585498	     -4.24104707	     -6.30503252	     30.69823080	     17.66732926	      0.00000000	     17.68353611	     -1.69319268	      1.32060230	    -27.45513327	     21.20706612	     -0.85295449	      0.00000000	    -33.97073661	      7.90938772	      9.95766110
      6.38000000	     14.26403760	     -4.37625306	      3.59161472	      2.70210011	      0.74305943	     -0.27983289	    -28.45458409	      7.48216613	     -4.22826710	     -6.54037930	     30.80581411	     18.14715797	      0.00000000	     17.61356972	     -1.85895629	      1.20000490	    -25.14969454	     20.99548349	      0.23030822	      0.00000000	    -33.97547518	      7.88797713	     10.41096823
      6.38500000	     14.09226147	     -4.51767757	      3.17071024	      2.70968553	      0.74199284	     -0.27990538	    -28.76590519	      7.35189808	     -4.15467253	     -6.85768836	     30.90386581	     18.64033084	      0.00000000	     17.55432898	     -2.01296337	      1.06262563	    -22.92929572	     20.78343469	      1.32349281	      0.00000000	    -33.91911416	      7.83951521	     10.83757694
      6.39000000	     13.93553831	     -4.65363973	      2.75940564	      2.71734718	      0.74092892	     -0.28002500	    -29.06231926	      7.20203806	     -4.12426399	     -7.24981093	     31.01715344	     19.19096809	      0.00000000	     17.46763197	     -2.15911146	      0.92188742	    -20.84783786	     20.61716431	      2.50292790	      0.00000000	    -33.86452235	      7.79538853	     11.29457520
